<svg xmlns="http://www.w3.org/2000/svg" width="212" height="31" viewBox="0 0 212 31"><g><g><g><g><path fill="#111739" d="M40.963 12.94c0-.573-.183-.98-.545-1.219-.366-.241-.908-.362-1.625-.362h-3.04v3.157h3.057c.756 0 1.3-.131 1.642-.393.342-.266.511-.66.511-1.184m.742 5.338c0-1.194-.856-1.79-2.567-1.79h-3.385v3.653h3.481c.86 0 1.484-.155 1.877-.466.397-.31.594-.776.594-1.397m2.677.207c0 1.159-.435 2.053-1.304 2.687-.866.632-2.074.95-3.616.95h-6.376V9.378h5.835c1.556 0 2.732.269 3.529.807.8.542 1.2 1.339 1.2 2.395 0 .72-.203 1.331-.603 1.828-.4.5-1.011.835-1.829 1.011 1.028.12 1.815.445 2.353.97.542.527.811 1.228.811 2.094"/></g><g><path fill="#111739" d="M46.076 22.119V8.698h2.543v13.42z"/></g><g><path fill="#111739" d="M57.676 17.218c0-1.163-.19-2.008-.57-2.533-.38-.524-.931-.787-1.656-.787-.772 0-1.349.276-1.735.829-.386.552-.58 1.383-.58 2.49 0 1.09.19 1.922.566 2.492.376.569.921.855 1.632.855.783 0 1.37-.28 1.76-.838.39-.556.583-1.394.583-2.508m2.66 0c0 1.587-.442 2.829-1.322 3.73-.88.903-2.097 1.352-3.653 1.352-1.525 0-2.722-.452-3.592-1.356-.866-.904-1.3-2.146-1.3-3.726 0-1.574.434-2.812 1.3-3.713.87-.9 2.084-1.352 3.647-1.352 1.597 0 2.815.434 3.657 1.307.842.87 1.263 2.122 1.263 3.758"/></g><g><path fill="#111739" d="M66.246 22.3c-1.484 0-2.629-.442-3.436-1.325-.808-.884-1.211-2.115-1.211-3.695 0-1.615.407-2.874 1.221-3.775.81-.9 1.967-1.352 3.46-1.352 1.153 0 2.105.29 2.86.87.753.575 1.225 1.376 1.419 2.394l-2.557.127c-.072-.5-.255-.9-.545-1.197-.29-.3-.7-.449-1.228-.449-.66 0-1.15.273-1.473.818-.328.545-.49 1.366-.49 2.464 0 1.128.165 1.973.5 2.539.335.562.835.845 1.497.845.483 0 .887-.152 1.211-.459.328-.303.528-.755.608-1.36l2.55.118a3.69 3.69 0 0 1-.729 1.805 3.965 3.965 0 0 1-1.532 1.204c-.628.283-1.335.428-2.125.428"/></g><g><path fill="#111739" d="M74.824 18.447v3.671h-2.543V8.698h2.543v7.686l3.492-4.05h2.729l-3.436 3.815 3.698 5.97h-2.774l-2.615-4.43z"/></g><g><path fill="#111739" d="M86.478 22.3c-1.484 0-2.63-.442-3.437-1.325-.807-.884-1.21-2.115-1.21-3.695 0-1.615.406-2.874 1.22-3.775.811-.9 1.967-1.352 3.461-1.352 1.152 0 2.105.29 2.86.87.752.575 1.225 1.376 1.418 2.394l-2.556.127c-.073-.5-.256-.9-.545-1.197-.29-.3-.7-.449-1.229-.449-.659 0-1.149.273-1.473.818-.328.545-.49 1.366-.49 2.464 0 1.128.166 1.973.5 2.539.335.562.835.845 1.498.845.483 0 .886-.152 1.21-.459.329-.303.529-.755.608-1.36l2.55.118a3.69 3.69 0 0 1-.728 1.805 3.965 3.965 0 0 1-1.532 1.204c-.628.283-1.335.428-2.125.428"/></g><g><path fill="#111739" d="M95.02 14.288c.345-.748.772-1.29 1.293-1.628.518-.338 1.136-.507 1.853-.507 1.039 0 1.832.32 2.388.959.555.638.831 1.573.831 2.805v6.203h-2.532v-5.479c0-.862-.145-1.507-.432-1.935-.29-.428-.728-.642-1.314-.642-.614 0-1.111.262-1.487.79-.376.528-.566 1.204-.566 2.029v5.237h-2.54V8.7h2.54v3.663c0 .218 0 .435-.007.649-.007.217-.014.431-.024.645-.007.21-.02.42-.038.631z"/></g><g><path fill="#111739" d="M108.858 17.587l-1.3.017c-.597.031-1.018.093-1.26.19-.248.11-.434.272-.566.49-.127.217-.193.507-.193.869 0 .462.107.807.321 1.035.214.224.5.338.856.338.396 0 .762-.11 1.093-.324a2.24 2.24 0 0 0 .77-.9c.186-.384.28-.79.28-1.219zm-2.957 4.713c-.948 0-1.687-.26-2.215-.773-.53-.518-.796-1.242-.796-2.177 0-1.011.33-1.78.99-2.305.659-.524 1.618-.8 2.87-.825l2.108-.034v-.497c0-.642-.11-1.114-.334-1.425-.225-.31-.587-.466-1.094-.466-.47 0-.818.107-1.035.321-.22.214-.359.566-.414 1.063l-2.65-.128c.335-1.935 1.736-2.901 4.206-2.901 1.238 0 2.19.303 2.86.91.666.611 1 1.477 1 2.598v3.561c0 .549.063.928.187 1.135.124.21.331.314.62.314.194 0 .38-.017.56-.055v1.376c-.314.076-.58.135-.804.176a5.007 5.007 0 0 1-.825.06c-.638 0-1.107-.16-1.414-.474-.304-.31-.487-.772-.545-1.383h-.056c-.355.642-.8 1.121-1.338 1.442-.538.324-1.163.487-1.88.487"/></g><g><path fill="#111739" d="M116.3 22.12h-2.542v-9.784h2.542zm0-11.547h-2.542V8.699h2.542z"/></g><g><path fill="#111739" d="M121.259 16.872v5.245h-2.543v-7.598c0-.524-.007-.952-.02-1.286-.018-.335-.032-.635-.052-.9h2.425c.01.072.028.244.045.51.017.269.034.545.048.824.017.28.024.483.024.611h.038c.342-.749.773-1.29 1.29-1.628.522-.339 1.14-.508 1.857-.508 1.035 0 1.832.321 2.387.96.552.638.832 1.573.832 2.804v6.21h-2.533v-5.488c0-.863-.144-1.508-.434-1.936-.29-.428-.728-.642-1.311-.642-.614 0-1.111.266-1.487.794-.38.524-.566 1.204-.566 2.028"/></g><g><path fill="#111739" d="M134.796 14.395v7.725h-2.37V9.375H136l2.277 7.128c.104.397.207.797.318 1.198.107.4.214.8.317 1.197.066-.228.128-.456.19-.683.059-.225.12-.452.183-.68.065-.231.131-.455.197-.68l2.342-7.48h3.554V22.12h-2.37v-7.725c0-.176.006-.524.024-1.052.013-.528.034-1.104.065-1.725-.21.807-.397 1.497-.555 2.063-.159.566-.29 1.011-.394 1.328l-2.297 7.111h-1.898l-2.298-7.11-.966-3.392c.035.7.062 1.28.08 1.742.017.463.027.808.027 1.035"/></g><g><path fill="#111739" d="M149.842 16.124c.018-.749.19-1.328.511-1.746.324-.417.783-.624 1.38-.624.559 0 1.007.196 1.339.593.33.393.52.987.569 1.777zm6.259 1.59v-.072c0-1.794-.37-3.16-1.111-4.092-.742-.932-1.815-1.397-3.222-1.397-1.47 0-2.605.434-3.41 1.304-.8.866-1.2 2.108-1.2 3.726 0 1.67.393 2.94 1.184 3.812.79.87 1.921 1.305 3.391 1.305 2.122 0 3.53-.887 4.223-2.657l-2.398-.21c-.114.386-.314.68-.6.872-.287.197-.652.294-1.097.294-.652 0-1.156-.242-1.508-.728-.352-.483-.528-1.204-.528-2.157z"/></g><g><path fill="#111739" d="M160.383 17.318v4.802h-2.543v-7.49c0-.535-.007-.983-.02-1.342-.018-.359-.032-.676-.053-.952h2.426c.01.051.024.172.034.362.014.186.025.397.038.628l.031.655c.01.204.014.352.014.442h.038c.238-.673.459-1.16.66-1.456.192-.283.42-.49.686-.625.265-.13.597-.196.993-.196.328 0 .59.045.787.134v2.126a5.06 5.06 0 0 0-1.083-.135c-.635 0-1.125.255-1.48.766-.352.514-.528 1.273-.528 2.28"/></g><g><path fill="#111739" d="M168.942 22.3c-1.483 0-2.629-.442-3.436-1.325-.807-.884-1.21-2.115-1.21-3.695 0-1.615.406-2.874 1.22-3.775.811-.9 1.967-1.352 3.46-1.352 1.153 0 2.106.29 2.861.87.752.575 1.225 1.376 1.418 2.394l-2.556.127c-.073-.5-.256-.9-.546-1.197-.29-.3-.7-.449-1.228-.449-.659 0-1.149.273-1.473.818-.328.545-.49 1.366-.49 2.464 0 1.128.166 1.973.5 2.539.335.562.835.845 1.498.845.483 0 .886-.152 1.21-.459.328-.303.529-.755.608-1.36l2.55.118a3.69 3.69 0 0 1-.728 1.805 3.966 3.966 0 0 1-1.532 1.204c-.628.283-1.335.428-2.126.428"/></g><g><path fill="#111739" d="M177.486 14.288c.345-.748.772-1.29 1.293-1.628.518-.338 1.135-.507 1.853-.507 1.039 0 1.832.32 2.388.959.555.638.831 1.573.831 2.805v6.203h-2.532v-5.479c0-.862-.145-1.507-.432-1.935-.29-.428-.728-.642-1.314-.642-.614 0-1.111.262-1.487.79-.376.528-.566 1.204-.566 2.029v5.237h-2.54V8.7h2.54v3.663c0 .218 0 .435-.007.649-.007.217-.014.431-.024.645-.007.21-.02.42-.038.631z"/></g><g><path fill="#111739" d="M191.324 17.587l-1.3.017c-.597.031-1.018.093-1.26.19-.248.11-.435.272-.566.49-.127.217-.193.507-.193.869 0 .462.107.807.321 1.035.214.224.5.338.856.338.396 0 .762-.11 1.093-.324a2.24 2.24 0 0 0 .77-.9c.186-.384.28-.79.28-1.219zm-2.957 4.713c-.948 0-1.687-.26-2.215-.773-.53-.518-.797-1.242-.797-2.177 0-1.011.332-1.78.99-2.305.66-.524 1.619-.8 2.871-.825l2.108-.034v-.497c0-.642-.11-1.114-.335-1.425-.224-.31-.586-.466-1.093-.466-.47 0-.818.107-1.035.321-.221.214-.36.566-.414 1.063l-2.65-.128c.335-1.935 1.735-2.901 4.206-2.901 1.238 0 2.19.303 2.86.91.666.611 1 1.477 1 2.598v3.561c0 .549.063.928.187 1.135.124.21.331.314.62.314.194 0 .38-.017.56-.055v1.376c-.314.076-.58.135-.804.176a5.007 5.007 0 0 1-.825.06c-.638 0-1.107-.16-1.414-.474-.304-.31-.487-.772-.545-1.383h-.056c-.355.642-.8 1.121-1.338 1.442-.539.324-1.163.487-1.88.487"/></g><g><path fill="#111739" d="M198.766 16.872v5.245h-2.546v-7.598c0-.524-.007-.952-.018-1.286-.02-.335-.034-.635-.055-.9h2.43c.006.072.023.244.04.51.018.269.035.545.049.824.017.28.024.483.024.611h.038c.341-.749.773-1.29 1.29-1.628.521-.339 1.139-.508 1.856-.508 1.039 0 1.832.321 2.388.96.552.638.831 1.573.831 2.804v6.21h-2.532v-5.488c0-.863-.145-1.508-.435-1.936-.29-.428-.724-.642-1.31-.642-.611 0-1.112.266-1.488.794-.38.524-.562 1.204-.562 2.028"/></g><g><path fill="#111739" d="M212 21.975c-.614.204-1.328.307-2.143.307-.748 0-1.324-.203-1.728-.61-.404-.407-.607-1.022-.607-1.85v-5.768h-1.239v-1.718h1.366l.797-2.298h1.59v2.298h1.857v1.718h-1.856v5.082c0 .476.09.828.272 1.052.18.228.46.342.842.342.18 0 .463-.045.849-.128z"/></g></g><g><path fill="#006edd" d="M13.138 15.048a.505.505 0 0 0 .502 0l4.68-2.74-2.509-1.514-.96.562-7.774-4.498 4.806-2.816 7.767 4.503-1.28.755 2.467 1.532 4.492-2.634a.5.5 0 0 0 0-.865L14.114.73A1.44 1.44 0 0 0 12.66.725L1.28 7.333a.501.501 0 0 0 0 .869l11.858 6.846zm1.28 15.414c.083 0 .17-.022.25-.069l3.033-1.763V18.273l1.268-.738v10.357l2.535-1.473V16.066l1.266-.74-.03 10.376 3.124-1.816c.443-.254.715-.73.715-1.246l-.01-9.52h.004l.01-3.542a.501.501 0 0 0-.756-.433l-11.665 6.776a.504.504 0 0 0-.247.433v13.604c0 .294.24.504.503.504zM2.566 14.592l7.728 4.46-.003 1.468-6.433-3.716v2.936l6.436 3.714v1.468l-7.728-4.46zm9.547 15.812a.503.503 0 0 0 .751-.437v-5.763l-2.57-1.483v-1.467l2.57 1.483v-6.379a.494.494 0 0 0-.254-.437L.752 9.133A.502.502 0 0 0 0 9.568v13.07c0 .518.277.994.724 1.248l11.39 6.518z"/><path fill="none" stroke="#000" stroke-miterlimit="20" d="M13.138 15.048a.505.505 0 0 0 .502 0l4.68-2.74-2.509-1.514-.96.562-7.774-4.498 4.806-2.816 7.767 4.503-1.28.755 2.467 1.532 4.492-2.634a.5.5 0 0 0 0-.865L14.114.73A1.44 1.44 0 0 0 12.66.725L1.28 7.333a.501.501 0 0 0 0 .869l11.858 6.846zm1.28 15.414c.083 0 .17-.022.25-.069l3.033-1.763V18.273l1.268-.738v10.357l2.535-1.473V16.066l1.266-.74-.03 10.376 3.124-1.816c.443-.254.715-.73.715-1.246l-.01-9.52h.004l.01-3.542a.501.501 0 0 0-.756-.433l-11.665 6.776a.504.504 0 0 0-.247.433v13.604c0 .294.24.504.503.504zM2.566 14.592l7.728 4.46-.003 1.468-6.433-3.716v2.936l6.436 3.714v1.468l-7.728-4.46zm9.547 15.812a.503.503 0 0 0 .751-.437v-5.763l-2.57-1.483v-1.467l2.57 1.483v-6.379a.494.494 0 0 0-.254-.437L.752 9.133A.502.502 0 0 0 0 9.568v13.07c0 .518.277.994.724 1.248l11.39 6.518z"/></g></g></g></svg>
