<svg width="0" height="0" xmlns="http://www.w3.org/2000/svg">
<symbol id="small" viewBox="0 0 26 38">
    <path fill="#006edd" d="M13.138 15.048a.505.505 0 0 0 .502 0l4.68-2.74-2.509-1.514-.96.562-7.774-4.498 4.806-2.816 7.767 4.503-1.28.755 2.467 1.532 4.492-2.634a.5.5 0 0 0 0-.865L14.114.73A1.44 1.44 0 0 0 12.66.725L1.28 7.333a.501.501 0 0 0 0 .869l11.858 6.846zm1.28 15.414c.083 0 .17-.022.25-.069l3.033-1.763V18.273l1.268-.738v10.357l2.535-1.473V16.066l1.266-.74-.03 10.376 3.124-1.816c.443-.254.715-.73.715-1.246l-.01-9.52h.004l.01-3.542a.501.501 0 0 0-.756-.433l-11.665 6.776a.504.504 0 0 0-.247.433v13.604c0 .294.24.504.503.504zM2.566 14.592l7.728 4.46-.003 1.468-6.433-3.716v2.936l6.436 3.714v1.468l-7.728-4.46zm9.547 15.812a.503.503 0 0 0 .751-.437v-5.763l-2.57-1.483v-1.467l2.57 1.483v-6.379a.494.494 0 0 0-.254-.437L.752 9.133A.502.502 0 0 0 0 9.568v13.07c0 .518.277.994.724 1.248l11.39 6.518z"/>
    <path fill="none" stroke="#000" stroke-miterlimit="20" d="M13.138 15.048a.505.505 0 0 0 .502 0l4.68-2.74-2.509-1.514-.96.562-7.774-4.498 4.806-2.816 7.767 4.503-1.28.755 2.467 1.532 4.492-2.634a.5.5 0 0 0 0-.865L14.114.73A1.44 1.44 0 0 0 12.66.725L1.28 7.333a.501.501 0 0 0 0 .869l11.858 6.846zm1.28 15.414c.083 0 .17-.022.25-.069l3.033-1.763V18.273l1.268-.738v10.357l2.535-1.473V16.066l1.266-.74-.03 10.376 3.124-1.816c.443-.254.715-.73.715-1.246l-.01-9.52h.004l.01-3.542a.501.501 0 0 0-.756-.433l-11.665 6.776a.504.504 0 0 0-.247.433v13.604c0 .294.24.504.503.504zM2.566 14.592l7.728 4.46-.003 1.468-6.433-3.716v2.936l6.436 3.714v1.468l-7.728-4.46zm9.547 15.812a.503.503 0 0 0 .751-.437v-5.763l-2.57-1.483v-1.467l2.57 1.483v-6.379a.494.494 0 0 0-.254-.437L.752 9.133A.502.502 0 0 0 0 9.568v13.07c0 .518.277.994.724 1.248l11.39 6.518z"/>
</symbol>
<symbol id="large" viewBox="0 0 24 38">
    <path fill="#006edd" d="M13.138 15.048a.505.505 0 0 0 .502 0l4.68-2.74-2.509-1.514-.96.562-7.774-4.498 4.806-2.816 7.767 4.503-1.28.755 2.467 1.532 4.492-2.634a.5.5 0 0 0 0-.865L14.114.73A1.44 1.44 0 0 0 12.66.725L1.28 7.333a.501.501 0 0 0 0 .869l11.858 6.846zm1.28 15.414c.083 0 .17-.022.25-.069l3.033-1.763V18.273l1.268-.738v10.357l2.535-1.473V16.066l1.266-.74-.03 10.376 3.124-1.816c.443-.254.715-.73.715-1.246l-.01-9.52h.004l.01-3.542a.501.501 0 0 0-.756-.433l-11.665 6.776a.504.504 0 0 0-.247.433v13.604c0 .294.24.504.503.504zM2.566 14.592l7.728 4.46-.003 1.468-6.433-3.716v2.936l6.436 3.714v1.468l-7.728-4.46zm9.547 15.812a.503.503 0 0 0 .751-.437v-5.763l-2.57-1.483v-1.467l2.57 1.483v-6.379a.494.494 0 0 0-.254-.437L.752 9.133A.502.502 0 0 0 0 9.568v13.07c0 .518.277.994.724 1.248l11.39 6.518z"/>
    <path fill="none" stroke="#000" stroke-miterlimit="20" d="M13.138 15.048a.505.505 0 0 0 .502 0l4.68-2.74-2.509-1.514-.96.562-7.774-4.498 4.806-2.816 7.767 4.503-1.28.755 2.467 1.532 4.492-2.634a.5.5 0 0 0 0-.865L14.114.73A1.44 1.44 0 0 0 12.66.725L1.28 7.333a.501.501 0 0 0 0 .869l11.858 6.846zm1.28 15.414c.083 0 .17-.022.25-.069l3.033-1.763V18.273l1.268-.738v10.357l2.535-1.473V16.066l1.266-.74-.03 10.376 3.124-1.816c.443-.254.715-.73.715-1.246l-.01-9.52h.004l.01-3.542a.501.501 0 0 0-.756-.433l-11.665 6.776a.504.504 0 0 0-.247.433v13.604c0 .294.24.504.503.504zM2.566 14.592l7.728 4.46-.003 1.468-6.433-3.716v2.936l6.436 3.714v1.468l-7.728-4.46zm9.547 15.812a.503.503 0 0 0 .751-.437v-5.763l-2.57-1.483v-1.467l2.57 1.483v-6.379a.494.494 0 0 0-.254-.437L.752 9.133A.502.502 0 0 0 0 9.568v13.07c0 .518.277.994.724 1.248l11.39 6.518z"/>
</symbol>
</svg>
